<?xml version="1.0" standalone="no"?>
<!DOCTYPE svg PUBLIC "-//W3C//DTD SVG 20010904//EN"
 "http://www.w3.org/TR/2001/REC-SVG-20010904/DTD/svg10.dtd">
<svg version="1.0" xmlns="http://www.w3.org/2000/svg"
 width="256.000000pt" height="256.000000pt" viewBox="0 0 256.000000 256.000000"
 preserveAspectRatio="xMidYMid meet">
<metadata>
Created by potrace 1.11, written by Peter Selinger 2001-2013
</metadata>
<g transform="translate(0.000000,256.000000) scale(0.100000,-0.100000)"
fill="#000000" stroke="none">
<path d="M1095 2479 c-31 -9 -75 -18 -110 -23 -11 -2 -27 -6 -35 -9 -8 -3 -24
-7 -35 -9 -11 -2 -22 -6 -25 -10 -3 -4 -15 -9 -25 -11 -20 -4 -88 -31 -115
-46 -8 -4 -36 -19 -62 -34 -25 -14 -48 -25 -50 -24 -1 1 -2 0 -1 -2 5 -9 -69
-51 -79 -45 -7 4 -8 2 -4 -4 4 -7 -6 -19 -23 -30 -17 -10 -28 -22 -24 -25 3
-4 1 -7 -6 -7 -13 0 -124 -110 -151 -149 -8 -12 -21 -19 -28 -16 -7 2 -10 0
-7 -5 8 -13 -14 -52 -25 -45 -6 3 -7 -1 -4 -9 3 -9 2 -16 -4 -16 -5 0 -12 -8
-15 -17 -6 -18 -37 -73 -47 -83 -11 -11 -41 -70 -35 -70 4 0 -4 -14 -16 -32
-13 -17 -18 -28 -11 -24 19 12 14 -1 -10 -25 -13 -12 -17 -18 -9 -14 9 5 12 3
9 -6 -3 -8 -11 -13 -17 -11 -7 1 -10 -2 -6 -8 7 -12 -12 -108 -25 -125 -4 -5
-6 -20 -4 -32 2 -13 0 -23 -4 -23 -5 0 -7 -13 -6 -30 1 -16 -3 -30 -9 -30 -7
0 -8 -3 -1 -10 12 -12 6 -82 -6 -75 -5 3 -12 1 -15 -5 -4 -6 -1 -9 7 -8 17 4
21 -91 5 -111 -10 -12 -9 -13 2 -6 11 6 13 3 9 -13 -4 -13 -1 -22 5 -22 7 0 5
-5 -3 -10 -13 -9 -13 -10 0 -10 12 0 12 -2 1 -9 -9 -6 -10 -11 -2 -15 16 -10
14 -39 -1 -30 -7 4 -6 -1 3 -12 9 -10 20 -35 23 -54 5 -26 4 -31 -3 -20 -7 9
-11 10 -11 3 0 -6 5 -15 11 -18 6 -4 8 -14 5 -22 -4 -9 -2 -11 6 -7 7 5 9 2 5
-9 -3 -9 1 -18 11 -22 14 -5 14 -7 2 -15 -8 -5 -17 -7 -21 -4 -4 2 -10 0 -13
-5 -4 -5 2 -8 11 -6 29 4 46 -14 31 -33 -8 -10 -9 -13 -2 -9 7 4 14 0 17 -8 4
-10 1 -12 -11 -9 -9 3 -6 -1 7 -9 18 -11 20 -16 10 -20 -9 -3 -10 -6 -2 -6 7
-1 17 -11 24 -22 8 -16 8 -20 0 -14 -7 4 -10 1 -9 -7 2 -7 -3 -12 -10 -10 -8
1 -11 -2 -7 -9 5 -8 10 -8 18 0 15 15 27 14 27 -3 0 -8 7 -22 16 -30 8 -9 13
-20 9 -25 -3 -5 4 -16 16 -24 13 -9 16 -17 10 -22 -14 -8 -14 -25 0 -25 5 0 7
5 3 12 -4 7 -3 8 4 4 7 -4 12 -13 12 -21 0 -7 7 -16 16 -19 8 -3 14 -14 12
-23 -3 -22 9 -43 25 -43 6 0 2 7 -9 15 -10 8 -14 15 -8 15 6 0 17 -7 24 -15 7
-8 10 -15 6 -15 -3 0 3 -9 14 -20 11 -11 20 -27 20 -35 0 -8 5 -15 11 -15 5 0
7 6 4 13 -4 6 3 1 15 -12 11 -13 19 -30 16 -37 -3 -8 0 -11 10 -7 10 4 17 -2
21 -16 3 -11 12 -21 21 -21 21 0 52 -29 46 -44 -3 -7 3 -19 12 -27 12 -9 15
-10 10 -1 -4 7 -1 12 8 12 9 0 16 -4 16 -10 0 -5 7 -10 15 -10 8 0 15 -4 15
-10 0 -5 7 -10 15 -10 16 0 39 -46 30 -60 -3 -5 -1 -11 4 -14 6 -4 8 7 6 24
-3 25 -2 28 9 17 8 -6 12 -15 9 -19 -2 -5 1 -8 7 -8 6 0 8 -5 4 -12 -4 -7 -3
-8 4 -4 6 4 8 14 5 24 -6 15 -5 15 12 -1 14 -15 15 -21 6 -27 -8 -5 -9 -10 -3
-14 5 -3 13 1 16 10 3 8 11 12 17 8 8 -4 7 -9 -2 -15 -10 -6 -10 -9 -2 -9 6 0
15 4 18 10 7 11 45 -9 45 -24 0 -4 -6 -3 -14 3 -10 8 -16 9 -21 1 -4 -6 -1 -9
7 -8 7 2 12 -2 11 -8 -1 -6 4 -11 12 -11 8 0 12 4 9 8 -2 4 0 10 6 14 5 3 10
-1 10 -9 0 -9 5 -16 11 -16 6 0 9 7 6 14 -4 10 -1 13 9 9 15 -6 18 -16 7 -27
-11 -11 -12 -37 -1 -30 5 3 7 9 4 12 -3 3 -1 11 4 18 11 12 50 8 50 -5 0 -4 8
-8 18 -9 24 -2 66 -10 70 -12 1 -2 8 -3 15 -4 6 -1 12 -8 11 -17 -1 -10 6 -15
20 -14 12 1 25 -3 29 -9 5 -6 6 0 3 14 -3 14 -3 19 0 13 3 -7 15 -13 25 -13
13 0 18 4 13 12 -4 7 -3 8 5 4 9 -6 9 -11 0 -22 -6 -8 -9 -17 -5 -21 3 -3 6
-1 6 6 0 7 5 9 10 6 6 -3 10 -2 10 4 0 19 74 7 87 -14 7 -11 12 -14 13 -7 0 8
9 11 25 8 15 -3 23 -1 20 5 -4 5 -10 7 -15 4 -5 -3 -11 -2 -14 3 -2 4 8 8 24
7 15 0 26 -3 23 -7 -2 -5 1 -8 7 -8 6 0 8 -5 5 -11 -4 -6 2 -5 13 2 12 7 19
16 17 19 -2 4 2 7 10 7 8 0 12 -4 9 -9 -3 -4 -1 -8 5 -8 5 0 12 6 14 13 4 9 6
9 6 0 1 -7 6 -13 12 -13 5 0 7 4 4 10 -3 5 -1 10 4 10 6 0 11 -6 11 -12 0 -10
2 -10 8 0 11 17 50 24 58 10 4 -6 0 -15 -7 -20 -12 -8 -11 -9 1 -5 8 2 15 12
15 22 0 10 5 20 12 22 7 3 11 -3 8 -15 -2 -11 2 -19 11 -19 10 0 11 4 3 13 -7
8 -7 14 1 19 5 3 10 1 10 -4 0 -6 5 -11 10 -11 6 0 9 6 8 12 -2 7 4 13 12 13
8 0 21 4 29 9 10 6 12 4 7 -12 -4 -11 -2 -23 3 -27 7 -3 8 0 5 10 -4 10 -1 14
7 12 8 -2 11 -2 7 0 -5 3 -8 11 -8 20 0 12 2 12 16 -2 12 -11 20 -13 29 -5 7
6 18 9 25 8 7 -2 14 3 15 10 2 7 1 8 -2 2 -6 -12 -23 -4 -23 11 0 6 5 7 10 4
6 -3 10 0 10 7 1 7 9 -3 20 -22 11 -19 19 -31 20 -27 0 5 -5 17 -10 27 -7 13
-7 21 0 25 5 3 10 -2 11 -12 0 -12 4 -10 10 8 10 27 54 45 65 27 3 -5 14 -2
23 6 10 9 21 13 26 9 4 -5 5 -2 1 5 -6 11 -12 10 -29 -4 -22 -18 -22 -18 0 6
19 20 24 21 38 10 13 -11 15 -10 10 2 -5 13 22 47 32 41 10 -8 23 -1 17 9 -4
7 -3 8 4 4 7 -4 12 -1 12 6 0 9 3 9 10 -2 8 -13 10 -13 10 2 0 19 34 33 52 22
9 -6 9 -3 -1 9 -14 17 -11 20 24 18 12 0 15 2 7 5 -10 5 -6 14 14 35 20 21 31
26 40 18 10 -8 12 -6 9 11 -3 14 2 23 16 28 11 5 19 12 17 17 -2 4 5 9 15 11
9 1 17 -2 17 -8 0 -6 -8 -7 -17 -3 -15 5 -16 4 -5 -6 18 -19 40 4 23 25 -10
12 -9 14 6 11 10 -1 17 -8 15 -15 -1 -6 2 -9 8 -5 6 4 5 13 -3 26 -10 17 -9
23 12 40 12 10 27 16 32 13 5 -3 9 0 9 5 0 6 -6 11 -12 11 -9 0 -9 3 -2 8 13
9 106 152 99 152 -3 0 2 12 11 26 13 19 19 22 26 12 5 -8 6 -2 2 16 -6 25 -5
28 11 22 15 -5 16 -4 5 9 -10 12 -9 15 6 16 11 1 23 1 27 0 5 -1 6 3 2 8 -3 6
-12 8 -20 4 -8 -3 -15 0 -15 6 0 6 5 11 11 11 5 0 8 4 4 9 -6 10 29 34 37 26
3 -3 5 2 5 10 0 11 -4 12 -11 5 -5 -5 -14 -10 -20 -10 -6 0 -5 5 2 12 7 7 12
21 12 32 0 11 8 28 18 39 10 13 11 17 3 12 -11 -6 -13 -4 -7 11 4 10 10 34 13
51 4 21 10 30 17 26 6 -4 5 1 -3 10 -9 12 -10 17 -2 17 7 0 9 5 6 11 -4 5 1
19 11 30 15 17 15 19 2 14 -12 -5 -16 -2 -13 12 2 10 4 20 6 23 1 3 3 12 3 20
1 8 8 14 15 12 7 -1 10 2 6 8 -3 6 -10 8 -14 5 -5 -2 -8 18 -8 45 0 34 3 47
11 43 6 -4 5 1 -3 10 -7 9 -11 30 -9 47 3 16 0 30 -5 30 -5 0 -4 7 3 15 10 12
10 15 -1 15 -12 0 -12 2 0 9 8 5 9 10 3 12 -6 2 -12 24 -14 49 -1 25 -6 47
-10 50 -3 3 -8 19 -11 35 -3 17 -12 51 -21 78 -10 26 -14 53 -10 59 4 6 3 8
-3 5 -10 -6 -28 27 -35 63 -2 8 -9 21 -16 28 -7 8 -10 18 -7 23 4 5 2 9 -4 9
-10 0 -27 39 -23 53 1 5 -2 6 -8 2 -9 -6 -14 7 -7 20 1 2 -8 12 -20 20 -13 9
-23 22 -23 30 0 7 -3 15 -8 17 -4 2 -23 23 -42 48 -52 66 -148 160 -205 200
-27 19 -52 37 -55 40 -11 11 -69 50 -75 50 -3 0 -23 11 -44 24 -21 14 -42 22
-45 19 -3 -4 -6 0 -6 7 0 7 -3 10 -6 7 -4 -3 -16 -1 -28 5 -21 12 -27 14 -47
17 -5 0 -7 6 -3 13 4 7 3 8 -4 4 -6 -4 -32 0 -57 8 -24 9 -59 18 -77 21 -17 3
-34 8 -38 10 -30 19 -380 30 -435 14z m565 -2343 c0 -11 -19 -15 -25 -6 -3 5
1 10 9 10 9 0 16 -2 16 -4z m-610 -36 c0 -5 -2 -10 -4 -10 -3 0 -8 5 -11 10
-3 6 -1 10 4 10 6 0 11 -4 11 -10z"/>
<path d="M75 1050 c-3 -5 -1 -10 4 -10 6 0 11 5 11 10 0 6 -2 10 -4 10 -3 0
-8 -4 -11 -10z"/>
<path d="M190 721 c0 -10 19 -25 25 -20 1 2 -3 10 -11 17 -8 7 -14 8 -14 3z"/>
<path d="M2345 720 c-3 -5 -2 -10 4 -10 5 0 13 5 16 10 3 6 2 10 -4 10 -5 0
-13 -4 -16 -10z"/>
<path d="M2316 655 c-9 -26 -7 -32 5 -12 6 10 9 21 6 23 -2 3 -7 -2 -11 -11z"/>
<path d="M2287 615 c-4 -8 -3 -16 1 -19 4 -3 9 4 9 15 2 23 -3 25 -10 4z"/>
<path d="M253 595 c0 -8 4 -12 9 -9 5 3 6 10 3 15 -9 13 -12 11 -12 -6z"/>
<path d="M2268 568 c-7 -17 15 -19 29 -3 4 4 3 5 -4 2 -6 -4 -13 -2 -15 5 -3
8 -6 6 -10 -4z"/>
<path d="M2205 509 c-4 -6 -5 -12 -2 -15 2 -3 7 2 10 11 7 17 1 20 -8 4z"/>
<path d="M380 460 c-9 -6 -10 -10 -3 -10 6 0 15 5 18 10 8 12 4 12 -15 0z"/>
<path d="M2116 408 c3 -5 10 -6 15 -3 13 9 11 12 -6 12 -8 0 -12 -4 -9 -9z"/>
<path d="M2064 368 c-10 -12 -13 -18 -5 -13 11 6 13 4 8 -9 -4 -11 -3 -15 4
-11 6 4 8 13 5 20 -3 8 0 16 7 18 7 2 9 7 6 11 -3 3 -14 -4 -25 -16z"/>
<path d="M463 373 c-7 -2 -13 -9 -13 -15 0 -6 6 -6 15 2 18 15 36 5 29 -18 -5
-14 -4 -14 4 -2 8 10 8 18 0 27 -11 14 -15 14 -35 6z"/>
<path d="M540 299 c-13 -9 -13 -10 0 -8 27 3 41 -1 36 -9 -2 -4 7 -9 22 -10
l27 -2 -27 14 c-16 8 -32 17 -36 20 -4 2 -14 0 -22 -5z"/>
<path d="M1973 285 c-3 -9 -3 -18 -1 -21 3 -3 8 4 11 16 6 23 -1 27 -10 5z"/>
<path d="M1925 251 c-11 -5 -23 -7 -27 -5 -4 3 -9 1 -12 -4 -2 -4 10 -7 28 -7
19 0 33 5 33 13 0 6 -1 12 -1 11 -1 0 -10 -4 -21 -8z"/>
<path d="M1890 211 c0 -6 4 -13 10 -16 6 -3 7 1 4 9 -7 18 -14 21 -14 7z"/>
<path d="M1754 168 c-4 -7 -3 -8 4 -4 7 4 12 3 12 -1 0 -13 39 -13 46 -1 4 7
2 8 -4 4 -6 -4 -20 -2 -31 4 -14 7 -22 7 -27 -2z"/>
<path d="M864 131 c0 -9 8 -17 17 -17 18 0 15 22 -5 29 -6 3 -12 -3 -12 -12z"/>
<path d="M950 100 c6 -11 13 -20 16 -20 2 0 0 9 -6 20 -6 11 -13 20 -16 20 -2
0 0 -9 6 -20z"/>
<path d="M976 106 c7 -19 20 -21 30 -3 4 6 4 9 -1 5 -4 -4 -14 -3 -22 4 -11 8
-12 7 -7 -6z"/>
<path d="M915 100 c3 -5 8 -10 11 -10 2 0 4 5 4 10 0 6 -5 10 -11 10 -5 0 -7
-4 -4 -10z"/>
<path d="M1560 103 c5 -2 8 -9 5 -13 -3 -5 -1 -11 4 -14 5 -4 8 2 7 11 -2 9
-8 18 -15 19 -6 1 -7 0 -1 -3z"/>
<path d="M1430 68 c-12 -22 -12 -22 6 -6 10 10 15 20 12 24 -4 3 -12 -5 -18
-18z"/>
<path d="M1171 77 c2 -1 13 -9 24 -17 19 -14 19 -14 6 3 -7 9 -18 17 -24 17
-6 0 -8 -1 -6 -3z"/>
<path d="M1015 59 c-3 -4 2 -6 10 -5 21 3 28 13 10 13 -9 0 -18 -4 -20 -8z"/>
<path d="M1130 57 c0 -2 6 -10 14 -16 11 -9 16 -9 22 1 4 7 4 10 -1 6 -4 -4
-14 -3 -22 3 -7 6 -13 9 -13 6z"/>
<path d="M1380 46 c7 -7 13 -7 20 0 6 6 3 10 -10 10 -13 0 -16 -4 -10 -10z"/>
<path d="M1270 46 c0 -2 7 -7 16 -10 8 -3 12 -2 9 4 -6 10 -25 14 -25 6z"/>
</g>
</svg>
